<?xml version="1.0" encoding="utf-8"?>
<!-- Generator: Adobe Illustrator 17.0.0, SVG Export Plug-In . SVG Version: 6.00 Build 0)  -->
<!DOCTYPE svg PUBLIC "-//W3C//DTD SVG 1.1//EN" "http://www.w3.org/Graphics/SVG/1.1/DTD/svg11.dtd">
<svg version="1.1" id="Layer_1" xmlns="http://www.w3.org/2000/svg" xmlns:xlink="http://www.w3.org/1999/xlink" x="0px" y="0px"
	 width="654px" height="41px" viewBox="0 0 654 41" enable-background="new 0 0 654 41" xml:space="preserve">
<path fill="#F2F2F2" d="M153,41H12C5.373,41,0,35.627,0,29V12C0,5.373,5.373,0,12,0h141l12,22L153,41z"/>
<g>
	<path d="M29.913,14.491l-2.231-2.231C26.989,11.567,25.62,11,24.641,11h-8.312c-0.98,0-1.781,0.802-1.781,1.781v15.438
		c0,0.98,0.802,1.781,1.781,1.781h13.062c0.98,0,1.781-0.802,1.781-1.781V17.531C31.172,16.552,30.605,15.183,29.913,14.491z
		 M25.234,13.515c0.041,0.015,0.083,0.031,0.125,0.049c0.335,0.139,0.568,0.3,0.642,0.375l2.231,2.231
		c0.075,0.075,0.236,0.307,0.375,0.642c0.018,0.043,0.034,0.085,0.049,0.125l-3.422,0.001
		C25.234,16.938,25.234,13.515,25.234,13.515z M28.797,27.625H16.922v-14.25h7.125v4.75h4.75V27.625z"/>
</g>
<path fill="#F2F2F2" d="M328,41H177c-6.627,0-12-5.373-12-12V12c0-6.627,5.373-12,12-12h151l12,22L328,41z"/>
<g>
	<path fill="#1A1A1A" d="M200.69,15.479c0.32,0.456,0.392,0.973,0.216,1.549l-3.303,10.881c-0.152,0.512-0.458,0.943-0.919,1.291
		c-0.46,0.348-0.951,0.523-1.471,0.523h-11.084c-0.616,0-1.211-0.214-1.783-0.642c-0.573-0.428-0.971-0.955-1.195-1.579
		c-0.192-0.536-0.2-1.045-0.024-1.525c0-0.032,0.012-0.14,0.036-0.324s0.04-0.332,0.048-0.445c0.008-0.064-0.004-0.15-0.036-0.258
		s-0.044-0.186-0.036-0.234c0.016-0.088,0.048-0.172,0.096-0.252c0.048-0.08,0.114-0.174,0.198-0.282s0.15-0.202,0.198-0.282
		c0.184-0.304,0.364-0.671,0.541-1.099c0.176-0.428,0.296-0.794,0.36-1.099c0.024-0.08,0.026-0.2,0.006-0.36
		s-0.022-0.272-0.006-0.336c0.024-0.088,0.092-0.2,0.204-0.336s0.18-0.228,0.204-0.276c0.168-0.288,0.336-0.657,0.504-1.105
		s0.268-0.809,0.3-1.081c0.008-0.072-0.002-0.2-0.03-0.384s-0.026-0.296,0.006-0.336c0.032-0.104,0.12-0.226,0.264-0.367
		s0.232-0.23,0.264-0.27c0.152-0.208,0.322-0.546,0.51-1.015c0.188-0.469,0.298-0.855,0.33-1.159
		c0.008-0.064-0.004-0.166-0.036-0.306c-0.032-0.14-0.04-0.246-0.024-0.318c0.016-0.064,0.052-0.136,0.108-0.216
		s0.128-0.172,0.216-0.276s0.156-0.189,0.204-0.252c0.064-0.096,0.13-0.218,0.198-0.367c0.068-0.148,0.128-0.289,0.18-0.42
		c0.052-0.132,0.116-0.276,0.192-0.432s0.154-0.284,0.234-0.384s0.186-0.194,0.318-0.282c0.132-0.089,0.276-0.135,0.432-0.138
		c0.156-0.003,0.346,0.019,0.57,0.066l-0.012,0.036c0.304-0.072,0.509-0.108,0.613-0.108h9.139c0.592,0,1.049,0.224,1.369,0.673
		s0.393,0.969,0.216,1.561l-3.291,10.881c-0.288,0.953-0.575,1.567-0.859,1.843c-0.284,0.276-0.799,0.414-1.543,0.414H182.88
		c-0.216,0-0.368,0.06-0.457,0.18c-0.088,0.128-0.092,0.3-0.012,0.516c0.192,0.56,0.769,0.841,1.729,0.841h11.084
		c0.232,0,0.456-0.062,0.673-0.186c0.216-0.124,0.356-0.29,0.42-0.498l3.603-11.853c0.056-0.176,0.076-0.404,0.06-0.685
		c0.304,0.12,0.541,0.292,0.709,0.516L200.69,15.479z M187.913,15.503c-0.032,0.104-0.024,0.194,0.024,0.27s0.128,0.114,0.24,0.114
		h7.301c0.104,0,0.206-0.038,0.306-0.114s0.166-0.166,0.198-0.27l0.252-0.769c0.032-0.104,0.024-0.194-0.024-0.27
		s-0.128-0.114-0.24-0.114h-7.301c-0.104,0-0.206,0.038-0.306,0.114s-0.166,0.166-0.198,0.27L187.913,15.503z M186.916,18.578
		c-0.032,0.104-0.024,0.194,0.024,0.27s0.128,0.114,0.24,0.114h7.301c0.104,0,0.206-0.038,0.306-0.114s0.166-0.166,0.198-0.27
		l0.252-0.769c0.032-0.104,0.024-0.194-0.024-0.27s-0.128-0.114-0.24-0.114h-7.301c-0.104,0-0.206,0.038-0.306,0.114
		s-0.166,0.166-0.198,0.27L186.916,18.578z"/>
</g>
<linearGradient id="SVGID_1_" gradientUnits="userSpaceOnUse" x1="262" y1="137.5" x2="437" y2="137.5" gradientTransform="matrix(1 0 0 -1 78 158)">
	<stop  offset="0" style="stop-color:#78EF73"/>
	<stop  offset="1" style="stop-color:#78EF73"/>
</linearGradient>
<path fill="url(#SVGID_1_)" d="M503,41H352c-6.627,0-12-5.373-12-12V12c0-6.627,5.373-12,12-12h151l12,22L503,41z"/>
<circle fill="#1A1A1A" cx="363" cy="20.5" r="11.768"/>
<g>
	<linearGradient id="SVGID_2_" gradientUnits="userSpaceOnUse" x1="358.9178" y1="21.0124" x2="367.8028" y2="21.0124">
		<stop  offset="0" style="stop-color:#78EF73"/>
		<stop  offset="1" style="stop-color:#78EF73"/>
	</linearGradient>
	<path fill="url(#SVGID_2_)" d="M361.45,22.283v-0.904c0-1.808,2.972-2.605,2.972-3.983c0-0.668-0.689-1.27-1.615-1.27
		c-1.508,0-1.917,1.356-2.455,0.883l-1.313-1.292c-0.173-0.151-0.151-0.409,0-0.56c0,0,1.593-1.895,4.37-1.895
		c2.282,0,4.393,1.593,4.393,3.769c0,2.842-3.23,2.928-3.23,5.253c0,0.237-0.194,0.409-0.409,0.409h-2.304
		C361.644,22.691,361.45,22.52,361.45,22.283z M363,24.673c1.12,0,2.068,0.947,2.068,2.067c0,1.098-0.948,2.024-2.068,2.024
		c-1.097,0-2.024-0.925-2.024-2.024C360.977,25.62,361.903,24.673,363,24.673z"/>
</g>
</svg>
