<?xml version="1.0" encoding="utf-8"?>
<!-- Generator: Adobe Illustrator 17.0.0, SVG Export Plug-In . SVG Version: 6.00 Build 0)  -->
<!DOCTYPE svg PUBLIC "-//W3C//DTD SVG 1.1//EN" "http://www.w3.org/Graphics/SVG/1.1/DTD/svg11.dtd">
<svg version="1.1" id="Layer_1" xmlns="http://www.w3.org/2000/svg" xmlns:xlink="http://www.w3.org/1999/xlink" x="0px" y="0px"
	 width="552px" height="46px" viewBox="0 0 552 46" enable-background="new 0 0 552 46" xml:space="preserve">
<g>
	<polygon fill="#1A1A1A" points="30.969,16.625 15.031,16.625 23,23 	"/>
	<polygon fill="#1A1A1A" points="13.438,18.219 13.438,29.375 32.562,29.375 32.562,18.219 23,26.188 	"/>
	<path fill="#1A1A1A" d="M23,0C10.297,0,0,10.297,0,23c0,12.703,10.297,23,23,23s23-10.297,23-23C46,10.297,35.703,0,23,0z
		 M35.75,30.969c0,0.881-0.714,1.594-1.594,1.594H11.844c-0.88,0-1.594-0.713-1.594-1.594V15.031c0-0.881,0.714-1.594,1.594-1.594
		h22.312c0.88,0,1.594,0.712,1.594,1.594V30.969z"/>
</g>
<path fill="#1A1A1A" d="M69,0C56.297,0,46,10.297,46,23c0,12.703,10.297,23,23,23s23-10.297,23-23C92,10.297,81.703,0,69,0z
	 M79.644,17.539c0.012,0.235,0.016,0.473,0.016,0.71c0,7.26-5.524,15.629-15.627,15.629c-3.104,0-5.99-0.909-8.42-2.468
	c0.429,0.051,0.866,0.077,1.31,0.077c2.574,0,4.942-0.878,6.821-2.352c-2.403-0.044-4.432-1.631-5.131-3.814
	c0.336,0.064,0.679,0.097,1.033,0.097c0.502,0,0.988-0.066,1.448-0.192c-2.512-0.506-4.406-2.725-4.406-5.386
	c0-0.023,0-0.045,0-0.068c0.74,0.412,1.588,0.657,2.488,0.687c-1.474-0.985-2.444-2.665-2.444-4.571
	c0-1.007,0.273-1.951,0.747-2.761c2.708,3.323,6.756,5.51,11.32,5.738c-0.095-0.402-0.143-0.82-0.143-1.251
	c0-3.032,2.459-5.491,5.493-5.491c1.581,0,3.008,0.667,4.01,1.734c1.25-0.246,2.426-0.705,3.487-1.333
	c-0.409,1.282-1.28,2.359-2.415,3.038c1.111-0.134,2.169-0.427,3.156-0.866C81.648,15.797,80.718,16.765,79.644,17.539z"/>
<path fill="#1A1A1A" d="M115,0c-12.703,0-23,10.297-23,23c0,12.703,10.297,23,23,23s23-10.297,23-23C138,10.297,127.703,0,115,0z
	 M106,30c-3.866,0-7-3.134-7-7c0-3.866,3.134-7,7-7s7,3.134,7,7C113,26.866,109.866,30,106,30z M124,30c-3.866,0-7-3.134-7-7
	c0-3.866,3.134-7,7-7s7,3.134,7,7C131,26.866,127.866,30,124,30z"/>
<path fill="#1A1A1A" d="M253,0c-12.703,0-23,10.297-23,23c0,12.703,10.297,23,23,23s23-10.297,23-23C276,10.297,265.703,0,253,0z
	 M246.444,33.485h-5.164V17.979h5.164V33.485z M245.982,15.1c-0.537,0.511-1.244,0.767-2.12,0.767h-0.032
	c-0.855,0-1.544-0.256-2.065-0.767c-0.522-0.511-0.782-1.148-0.782-1.909c0-0.772,0.269-1.411,0.806-1.917s1.239-0.759,2.105-0.759
	c0.866,0.001,1.559,0.253,2.081,0.759c0.522,0.505,0.788,1.144,0.798,1.917C246.783,13.953,246.519,14.589,245.982,15.1z
	 M265.017,24.598v8.887h-5.148v-8.292c0-1.095-0.211-1.953-0.633-2.574c-0.422-0.621-1.082-0.931-1.979-0.931
	c-0.657,0-1.207,0.18-1.651,0.54c-0.443,0.36-0.775,0.806-0.994,1.338c-0.115,0.313-0.172,0.735-0.172,1.267v8.653h-5.148
	c0.021-4.162,0.032-7.537,0.032-10.124c0-2.587-0.005-4.131-0.016-4.632l-0.016-0.751h5.148v2.206
	c0.199-0.313,0.402-0.591,0.61-0.829c0.219-0.251,0.514-0.522,0.884-0.814c0.37-0.292,0.824-0.519,1.362-0.681
	s1.135-0.243,1.792-0.243c1.784,0,3.218,0.592,4.303,1.776c1.085,1.184,1.627,2.918,1.627,5.203L265.017,24.598z"/>
<g>
	<path fill="#1A1A1A" d="M213.187,22.575c-0.659-0.44-1.467-0.821-2.403-1.128c-0.923-0.302-1.966-0.584-3.102-0.835
		c-0.899-0.215-1.554-0.38-1.944-0.49c-0.381-0.109-0.762-0.261-1.13-0.451c-0.357-0.182-0.637-0.403-0.837-0.654
		c-0.189-0.235-0.28-0.51-0.28-0.84c0-0.536,0.283-0.989,0.868-1.386c0.608-0.411,1.428-0.619,2.434-0.619
		c1.085,0,1.872,0.188,2.346,0.558c0.485,0.379,0.909,0.919,1.259,1.605c0.301,0.534,0.575,0.909,0.837,1.147
		c0.284,0.256,0.692,0.387,1.21,0.387c0.572,0,1.058-0.208,1.442-0.619c0.382-0.409,0.576-0.878,0.576-1.395
		c0-0.536-0.147-1.09-0.438-1.648c-0.289-0.549-0.748-1.08-1.366-1.578c-0.612-0.492-1.393-0.892-2.318-1.19
		c-0.92-0.293-2.023-0.443-3.277-0.443c-1.568,0-2.955,0.226-4.121,0.669c-1.181,0.449-2.096,1.105-2.725,1.947
		c-0.634,0.848-0.954,1.832-0.954,2.923c0,1.146,0.306,2.122,0.909,2.896c0.593,0.765,1.406,1.376,2.412,1.816
		c0.984,0.431,2.222,0.811,3.68,1.133c1.07,0.23,1.938,0.451,2.576,0.656c0.611,0.197,1.117,0.484,1.499,0.85
		c0.364,0.351,0.542,0.8,0.542,1.37c0,0.721-0.339,1.31-1.04,1.803c-0.715,0.504-1.667,0.758-2.827,0.758
		c-0.845,0-1.531-0.127-2.04-0.373c-0.506-0.247-0.903-0.564-1.178-0.938c-0.286-0.39-0.556-0.885-0.806-1.472
		c-0.222-0.536-0.499-0.954-0.822-1.237c-0.338-0.293-0.755-0.442-1.237-0.442c-0.588,0-1.08,0.191-1.466,0.562
		c-0.389,0.376-0.586,0.835-0.586,1.365c0,0.846,0.302,1.725,0.899,2.611c0.59,0.875,1.368,1.586,2.312,2.109
		c1.32,0.721,3.009,1.086,5.027,1.086c1.681,0,3.155-0.268,4.387-0.794c1.243-0.531,2.203-1.281,2.853-2.227
		c0.653-0.951,0.983-2.034,0.981-3.228c0-0.994-0.192-1.85-0.57-2.544C214.392,23.605,213.859,23.026,213.187,22.575z"/>
	<path fill="#1A1A1A" d="M207,0c-12.703,0-23,10.297-23,23c0,12.703,10.297,23,23,23s23-10.297,23-23C230,10.297,219.703,0,207,0z
		 M213.576,38.359c-1.392,0-2.702-0.36-3.848-0.994c-0.832,0.159-1.693,0.242-2.571,0.242c-7.754,0-14.042-6.468-14.042-14.446
		c0-0.995,0.099-1.966,0.285-2.904c-0.71-1.243-1.12-2.691-1.12-4.237c0-4.627,3.646-8.379,8.142-8.379
		c1.594,0,3.077,0.472,4.335,1.285c0.779-0.137,1.582-0.211,2.4-0.211c7.756,0,14.042,6.468,14.042,14.446
		c0,1.066-0.112,2.103-0.325,3.101c0.54,1.12,0.846,2.384,0.846,3.719C221.72,34.609,218.075,38.359,213.576,38.359z"/>
	<path fill="#1A1A1A" d="M161,0c-12.703,0-23,10.297-23,23c0,12.703,10.297,23,23,23s23-10.297,23-23C184,10.297,173.703,0,161,0z
		 M173.964,31.912c0,2.239-1.815,4.052-4.052,4.052h-17.823c-2.24,0-4.052-1.815-4.052-4.052V21.493h5.273
		c-0.097,0.488-0.148,0.992-0.148,1.507c0,4.329,3.509,7.839,7.839,7.839c4.328,0,7.839-3.509,7.839-7.839
		c0-0.515-0.051-1.019-0.146-1.507h5.271V31.912z M156.176,23c0-2.665,2.16-4.824,4.824-4.824s4.824,2.158,4.824,4.824
		s-2.16,4.824-4.824,4.824S156.176,25.665,156.176,23z M173.964,18.478h-6.563c-1.419-2.005-3.757-3.316-6.401-3.316
		s-4.982,1.311-6.401,3.316h-6.563v-4.389c0-2.238,1.814-4.052,4.052-4.052h17.823c2.238,0,4.052,1.815,4.052,4.052V18.478z"/>
	<path fill="#1A1A1A" d="M171.17,12.147h-2.169c-0.397,0-0.724,0.324-0.724,0.724v2.171c0,0.398,0.326,0.724,0.724,0.724h2.169
		c0.398,0,0.724-0.324,0.724-0.724V12.87C171.894,12.473,171.57,12.147,171.17,12.147z"/>
</g>
<g>
	<linearGradient id="SVGID_1_" gradientUnits="userSpaceOnUse" x1="299" y1="29.375" x2="299" y2="18.2188">
		<stop  offset="0" style="stop-color:#00FF9D"/>
		<stop  offset="1" style="stop-color:#29ABE2"/>
	</linearGradient>
	<polygon fill="url(#SVGID_1_)" points="289.438,18.219 289.438,29.375 308.562,29.375 308.562,18.219 299,26.188 	"/>
	<linearGradient id="SVGID_2_" gradientUnits="userSpaceOnUse" x1="299" y1="23" x2="299" y2="16.625">
		<stop  offset="0" style="stop-color:#00FF9D"/>
		<stop  offset="1" style="stop-color:#29ABE2"/>
	</linearGradient>
	<polygon fill="url(#SVGID_2_)" points="306.969,16.625 291.031,16.625 299,23 	"/>
	<linearGradient id="SVGID_3_" gradientUnits="userSpaceOnUse" x1="299" y1="46" x2="299" y2="0">
		<stop  offset="0" style="stop-color:#00FF9D"/>
		<stop  offset="1" style="stop-color:#29ABE2"/>
	</linearGradient>
	<path fill="url(#SVGID_3_)" d="M299,0c-12.703,0-23,10.297-23,23c0,12.703,10.297,23,23,23s23-10.297,23-23
		C322,10.297,311.703,0,299,0z M311.75,30.969c0,0.881-0.714,1.594-1.594,1.594h-22.312c-0.88,0-1.594-0.713-1.594-1.594V15.031
		c0-0.881,0.714-1.594,1.594-1.594h22.312c0.88,0,1.594,0.712,1.594,1.594V30.969z"/>
</g>
<linearGradient id="SVGID_4_" gradientUnits="userSpaceOnUse" x1="345" y1="0" x2="345" y2="46">
	<stop  offset="0" style="stop-color:#00FFFF"/>
	<stop  offset="1" style="stop-color:#00C0FF"/>
</linearGradient>
<path fill="url(#SVGID_4_)" d="M345,0c-12.703,0-23,10.297-23,23c0,12.703,10.297,23,23,23s23-10.297,23-23
	C368,10.297,357.703,0,345,0z M355.644,17.539c0.012,0.235,0.016,0.473,0.016,0.71c0,7.26-5.524,15.629-15.627,15.629
	c-3.104,0-5.99-0.909-8.42-2.468c0.429,0.051,0.866,0.077,1.31,0.077c2.574,0,4.942-0.878,6.821-2.352
	c-2.403-0.044-4.432-1.631-5.131-3.814c0.336,0.064,0.679,0.097,1.033,0.097c0.502,0,0.988-0.066,1.448-0.192
	c-2.512-0.506-4.406-2.725-4.406-5.386c0-0.023,0-0.045,0-0.068c0.74,0.412,1.588,0.657,2.488,0.687
	c-1.474-0.985-2.444-2.665-2.444-4.571c0-1.007,0.273-1.951,0.747-2.761c2.708,3.323,6.756,5.51,11.32,5.738
	c-0.095-0.402-0.143-0.82-0.143-1.251c0-3.032,2.459-5.491,5.493-5.491c1.581,0,3.008,0.667,4.01,1.734
	c1.25-0.246,2.426-0.705,3.487-1.333c-0.409,1.282-1.28,2.359-2.415,3.038c1.111-0.134,2.169-0.427,3.156-0.866
	C357.648,15.797,356.718,16.765,355.644,17.539z"/>
<linearGradient id="SVGID_5_" gradientUnits="userSpaceOnUse" x1="391" y1="46" x2="391" y2="9.094947e-13">
	<stop  offset="0" style="stop-color:#9E005D"/>
	<stop  offset="1" style="stop-color:#FF0085"/>
</linearGradient>
<path fill="url(#SVGID_5_)" d="M391,0c-12.703,0-23,10.297-23,23c0,12.703,10.297,23,23,23s23-10.297,23-23
	C414,10.297,403.703,0,391,0z M382,30c-3.866,0-7-3.134-7-7c0-3.866,3.134-7,7-7s7,3.134,7,7C389,26.866,385.866,30,382,30z M400,30
	c-3.866,0-7-3.134-7-7c0-3.866,3.134-7,7-7s7,3.134,7,7C407,26.866,403.866,30,400,30z"/>
<g>
	<linearGradient id="SVGID_6_" gradientUnits="userSpaceOnUse" x1="446.086" y1="15.7644" x2="446.086" y2="12.1466">
		<stop  offset="0" style="stop-color:#C69C6D"/>
		<stop  offset="1" style="stop-color:#FF8A99"/>
	</linearGradient>
	<path fill="url(#SVGID_6_)" d="M447.17,12.147h-2.169c-0.397,0-0.724,0.324-0.724,0.724v2.171c0,0.398,0.326,0.724,0.724,0.724
		h2.169c0.398,0,0.724-0.324,0.724-0.724V12.87C447.894,12.473,447.57,12.147,447.17,12.147z"/>
	<linearGradient id="SVGID_7_" gradientUnits="userSpaceOnUse" x1="437" y1="46" x2="437" y2="0">
		<stop  offset="0" style="stop-color:#C69C6D"/>
		<stop  offset="1" style="stop-color:#FF8A99"/>
	</linearGradient>
	<path fill="url(#SVGID_7_)" d="M437,0c-12.703,0-23,10.297-23,23c0,12.703,10.297,23,23,23s23-10.297,23-23
		C460,10.297,449.703,0,437,0z M449.964,31.912c0,2.239-1.815,4.052-4.052,4.052h-17.823c-2.24,0-4.052-1.815-4.052-4.052V21.493
		h5.273c-0.097,0.488-0.148,0.992-0.148,1.507c0,4.329,3.509,7.839,7.839,7.839c4.328,0,7.839-3.509,7.839-7.839
		c0-0.515-0.051-1.019-0.146-1.507h5.271V31.912z M432.176,23c0-2.665,2.16-4.824,4.824-4.824s4.824,2.158,4.824,4.824
		s-2.16,4.824-4.824,4.824S432.176,25.665,432.176,23z M449.964,18.478h-6.563c-1.419-2.005-3.757-3.316-6.401-3.316
		s-4.982,1.311-6.401,3.316h-6.563v-4.389c0-2.238,1.814-4.052,4.052-4.052h17.823c2.238,0,4.052,1.815,4.052,4.052V18.478z"/>
</g>
<linearGradient id="SVGID_8_" gradientUnits="userSpaceOnUse" x1="529" y1="0" x2="529" y2="46">
	<stop  offset="0" style="stop-color:#0000FF"/>
	<stop  offset="1" style="stop-color:#2E3192"/>
</linearGradient>
<path fill="url(#SVGID_8_)" d="M529,0c-12.703,0-23,10.297-23,23c0,12.703,10.297,23,23,23s23-10.297,23-23
	C552,10.297,541.703,0,529,0z M522.444,33.485h-5.164V17.979h5.164V33.485z M521.982,15.1c-0.537,0.511-1.244,0.767-2.12,0.767
	h-0.032c-0.855,0-1.544-0.256-2.065-0.767c-0.522-0.511-0.782-1.148-0.782-1.909c0-0.772,0.269-1.411,0.806-1.917
	s1.239-0.759,2.105-0.759c0.866,0.001,1.559,0.253,2.081,0.759c0.522,0.505,0.788,1.144,0.798,1.917
	C522.783,13.953,522.519,14.589,521.982,15.1z M541.017,24.598v8.887h-5.148v-8.292c0-1.095-0.211-1.953-0.633-2.574
	c-0.422-0.621-1.082-0.931-1.979-0.931c-0.657,0-1.207,0.18-1.651,0.54c-0.443,0.36-0.775,0.806-0.994,1.338
	c-0.115,0.313-0.172,0.735-0.172,1.267v8.653h-5.148c0.021-4.162,0.032-7.537,0.032-10.124c0-2.587-0.005-4.131-0.016-4.632
	l-0.016-0.751h5.148v2.206c0.199-0.313,0.402-0.591,0.61-0.829c0.219-0.251,0.514-0.522,0.884-0.814
	c0.37-0.292,0.824-0.519,1.362-0.681s1.135-0.243,1.792-0.243c1.784,0,3.218,0.592,4.303,1.776c1.085,1.184,1.627,2.918,1.627,5.203
	L541.017,24.598z"/>
<g>
	<linearGradient id="SVGID_9_" gradientUnits="userSpaceOnUse" x1="483.1095" y1="12.996" x2="483.1095" y2="33.088">
		<stop  offset="0" style="stop-color:#4ABFE2"/>
		<stop  offset="0.2846" style="stop-color:#49BAE5"/>
		<stop  offset="0.6291" style="stop-color:#46ABEF"/>
		<stop  offset="1" style="stop-color:#4293FF"/>
	</linearGradient>
	<path fill="url(#SVGID_9_)" d="M489.187,22.575c-0.659-0.44-1.467-0.821-2.403-1.128c-0.923-0.302-1.966-0.584-3.102-0.835
		c-0.899-0.215-1.554-0.38-1.944-0.49c-0.381-0.109-0.762-0.261-1.13-0.451c-0.357-0.182-0.637-0.403-0.837-0.654
		c-0.189-0.235-0.28-0.51-0.28-0.84c0-0.536,0.283-0.989,0.868-1.386c0.608-0.411,1.428-0.619,2.434-0.619
		c1.085,0,1.872,0.188,2.346,0.558c0.485,0.379,0.909,0.919,1.259,1.605c0.301,0.534,0.575,0.909,0.837,1.147
		c0.284,0.256,0.692,0.387,1.21,0.387c0.572,0,1.058-0.208,1.442-0.619c0.382-0.409,0.576-0.878,0.576-1.395
		c0-0.536-0.147-1.09-0.438-1.648c-0.289-0.549-0.748-1.08-1.366-1.578c-0.612-0.492-1.393-0.892-2.318-1.19
		c-0.92-0.293-2.023-0.443-3.277-0.443c-1.568,0-2.955,0.226-4.121,0.669c-1.181,0.449-2.096,1.105-2.725,1.947
		c-0.634,0.848-0.954,1.832-0.954,2.923c0,1.146,0.306,2.122,0.909,2.896c0.593,0.765,1.406,1.376,2.412,1.816
		c0.984,0.431,2.222,0.811,3.68,1.133c1.07,0.23,1.938,0.451,2.576,0.656c0.611,0.197,1.117,0.484,1.499,0.85
		c0.364,0.351,0.542,0.8,0.542,1.37c0,0.721-0.339,1.31-1.04,1.803c-0.715,0.504-1.667,0.758-2.827,0.758
		c-0.845,0-1.531-0.127-2.04-0.373c-0.506-0.247-0.903-0.564-1.178-0.938c-0.286-0.39-0.556-0.885-0.806-1.472
		c-0.222-0.536-0.499-0.954-0.822-1.237c-0.338-0.293-0.755-0.442-1.237-0.442c-0.588,0-1.08,0.191-1.466,0.562
		c-0.389,0.376-0.586,0.835-0.586,1.365c0,0.846,0.302,1.725,0.899,2.611c0.59,0.875,1.368,1.586,2.312,2.109
		c1.32,0.721,3.009,1.086,5.027,1.086c1.681,0,3.155-0.268,4.387-0.794c1.243-0.531,2.203-1.281,2.853-2.227
		c0.653-0.951,0.983-2.034,0.981-3.228c0-0.994-0.192-1.85-0.57-2.544C490.392,23.605,489.859,23.026,489.187,22.575z"/>
	<linearGradient id="SVGID_10_" gradientUnits="userSpaceOnUse" x1="483" y1="0" x2="483" y2="46">
		<stop  offset="0" style="stop-color:#4ABFE2"/>
		<stop  offset="0.2846" style="stop-color:#49BAE5"/>
		<stop  offset="0.6291" style="stop-color:#46ABEF"/>
		<stop  offset="1" style="stop-color:#4293FF"/>
	</linearGradient>
	<path fill="url(#SVGID_10_)" d="M483,0c-12.703,0-23,10.297-23,23c0,12.703,10.297,23,23,23s23-10.297,23-23
		C506,10.297,495.703,0,483,0z M489.576,38.359c-1.392,0-2.702-0.36-3.848-0.994c-0.832,0.159-1.693,0.242-2.571,0.242
		c-7.754,0-14.042-6.468-14.042-14.446c0-0.995,0.099-1.966,0.285-2.904c-0.71-1.243-1.12-2.691-1.12-4.237
		c0-4.627,3.646-8.379,8.142-8.379c1.594,0,3.077,0.472,4.335,1.285c0.779-0.137,1.582-0.211,2.4-0.211
		c7.756,0,14.042,6.468,14.042,14.446c0,1.066-0.112,2.103-0.325,3.101c0.54,1.12,0.846,2.384,0.846,3.719
		C497.72,34.609,494.075,38.359,489.576,38.359z"/>
</g>
</svg>
