<?xml version="1.0" encoding="utf-8"?>
<!-- Generator: Adobe Illustrator 17.0.0, SVG Export Plug-In . SVG Version: 6.00 Build 0)  -->
<!DOCTYPE svg PUBLIC "-//W3C//DTD SVG 1.1//EN" "http://www.w3.org/Graphics/SVG/1.1/DTD/svg11.dtd">
<svg version="1.1" id="Layer_1" xmlns="http://www.w3.org/2000/svg" xmlns:xlink="http://www.w3.org/1999/xlink" x="0px" y="0px"
	 width="100px" height="50px" viewBox="0 0 100 50" enable-background="new 0 0 100 50" xml:space="preserve">
<g opacity="0.1">
	<path d="M75,50c-13.806,0-25-11.194-25-25S61.194,0,75,0s25,11.194,25,25S88.806,50,75,50z M75,9.375l-9.359,12.5h18.719L75,9.375z
		 M75,25l-9.359,12.5h18.719L75,25z"/>
</g>
<g>
	<path fill="#1A1A1A" d="M25,50C11.194,50,0,38.806,0,25S11.194,0,25,0s25,11.194,25,25S38.806,50,25,50z M25,9.375l-9.359,12.5
		h18.719L25,9.375z M25,25l-9.359,12.5h18.719L25,25z"/>
</g>
</svg>
